<?xml version="1.0" standalone="no"?>
<!DOCTYPE svg PUBLIC "-//W3C//DTD SVG 20010904//EN"
 "http://www.w3.org/TR/2001/REC-SVG-20010904/DTD/svg10.dtd">
<svg version="1.0" xmlns="http://www.w3.org/2000/svg"
 width="1280.000000pt" height="1280.000000pt" viewBox="0 0 1280.000000 1280.000000"
 preserveAspectRatio="xMidYMid meet">
<g transform="translate(0.000000,1280.000000) scale(0.100000,-0.100000)"
fill="#000000" stroke="none">
<path d="M4885 12009 c-3 -13 -27 -123 -55 -244 -44 -197 -423 -1877 -435
-1932 -7 -29 64 -29 -803 3 -392 15 -715 24 -718 21 -10 -9 -58 -467 -99 -942
-41 -472 -57 -865 -60 -1535 -4 -607 -9 -835 -35 -1630 -23 -673 -40 -1471
-40 -1860 0 -921 -41 -1581 -152 -2477 -17 -144 -30 -264 -27 -266 2 -2 227
-10 499 -16 272 -6 668 -16 880 -21 382 -10 847 -21 1668 -40 235 -6 603 -15
817 -20 215 -5 705 -14 1090 -20 385 -6 997 -15 1360 -20 363 -5 897 -13 1188
-16 l527 -7 0 29 c0 16 -16 403 -36 859 -32 745 -35 882 -32 1335 1 278 3 957
2 1510 0 1001 -8 1302 -40 1690 -28 341 -37 1064 -24 1940 6 448 15 946 19
1105 5 160 7 292 5 294 -2 2 -140 -6 -306 -18 -459 -32 -653 -41 -1130 -48
-371 -5 -438 -4 -442 8 -3 8 -62 349 -130 758 -69 409 -127 746 -129 748 -3 2
-120 7 -262 10 -248 6 -257 7 -265 27 -5 12 -37 188 -71 391 -34 204 -63 372
-65 374 -4 4 -456 10 -2011 26 l-682 7 -6 -23z m1600 -585 c325 -3 593 -8 597
-12 12 -12 37 -177 28 -186 -10 -10 -1762 3 -1780 14 -15 9 22 178 42 192 7 5
128 6 268 3 140 -3 521 -7 845 -11z m555 -883 l195 -6 68 -408 c38 -225 66
-411 63 -415 -4 -3 -183 0 -399 6 -907 27 -1373 43 -1394 48 -14 2 -23 12 -23
22 1 44 169 755 181 762 13 9 982 2 1309 -9z"/>
</g>
</svg>
